<svg role="img" aria-label="AbelsonTaylor Logo" xmlns="http://www.w3.org/2000/svg" viewBox="0 0 513.312 137.491" width="167" height="50" id="Icon_Dark"><g><path d="M22.266,65.2h9.94L7.416,102.847a2.646,2.646,0,0,1-4.356.345L1.138,101.1a4.8,4.8,0,0,1-.446-5.582L19.766,66.488A3.548,3.548,0,0,1,22.266,65.2Z" style="fill:#fff"></path><path d="M120.115,61.6a4.8,4.8,0,0,0,4.414-3.446l.69-2.758a2.645,2.645,0,0,0-2.688-3.447H100.239L106.6,61.6Z" style="fill:#fff"></path><path d="M128.969,95.515,106.6,61.6l-6.364-9.651L66.786,1.214a2.181,2.181,0,0,0-3.91,0L29.422,51.946H41.03L64.83,15.9l57.414,86.943a2.646,2.646,0,0,0,4.356.345l1.923-2.095A4.8,4.8,0,0,0,128.969,95.515Z" style="fill:#fff"></path><path d="M7.131,51.946a2.646,2.646,0,0,0-2.689,3.447l.691,2.758A4.8,4.8,0,0,0,9.547,61.6H59.5v72.257a3.649,3.649,0,0,0,3.636,3.637H66.52a3.649,3.649,0,0,0,3.637-3.637V61.6H90.645l-5.306-8.036a4.5,4.5,0,0,0-3.115-1.615H7.131Z" style="fill:#fff"></path></g><g><path d="M179.634,51.7h2.211l9.53,21.063h-2.539l-2.45-5.527H175l-2.481,5.527H170.1Zm5.826,13.385-4.751-10.636-4.78,10.636Z" style="fill:#fff"></path><path d="M200.869,51.847h8.9a7.68,7.68,0,0,1,5.467,1.853,4.643,4.643,0,0,1,1.345,3.346v.06a5.048,5.048,0,0,1-3.316,4.84c2.479.747,4.481,2.18,4.481,5.049v.06c0,3.585-3.018,5.706-7.589,5.706h-9.291Zm13.325,5.528c0-2.062-1.643-3.406-4.631-3.406H203.2v7.2h6.185c2.838,0,4.81-1.285,4.81-3.735ZM209.8,63.26h-6.6v7.38h7.022c3.167,0,5.138-1.4,5.138-3.734v-.061C215.359,64.575,213.447,63.26,209.8,63.26Z" style="fill:#fff"></path><path d="M228.409,51.847h15.117V54H230.77v7.14h11.412v2.152H230.77V70.61h12.906v2.151H228.409Z" style="fill:#fff"></path><path d="M254.4,51.847h2.361V70.581h11.771v2.18H254.4Z" style="fill:#fff"></path><path d="M277.483,69.713l1.465-1.732a9.958,9.958,0,0,0,7.17,2.958c2.809,0,4.661-1.494,4.661-3.556v-.059c0-1.943-1.046-3.048-5.437-3.974-4.811-1.046-7.022-2.6-7.022-6.035v-.06c0-3.286,2.9-5.707,6.872-5.707a10.918,10.918,0,0,1,7.35,2.57l-1.375,1.823a9.182,9.182,0,0,0-6.035-2.271c-2.719,0-4.451,1.494-4.451,3.376v.06c0,1.972,1.075,3.077,5.676,4.063,4.661,1.016,6.812,2.719,6.812,5.915v.06c0,3.586-2.987,5.916-7.141,5.916A12.234,12.234,0,0,1,277.483,69.713Z" style="fill:#fff"></path><path d="M303.022,62.364V62.3a10.667,10.667,0,1,1,21.332-.059V62.3a10.667,10.667,0,1,1-21.332.06Zm18.883,0V62.3a8.315,8.315,0,0,0-8.246-8.634c-4.78,0-8.186,3.825-8.186,8.575V62.3a8.315,8.315,0,0,0,8.246,8.635C318.5,70.939,321.9,67.115,321.9,62.364Z" style="fill:#fff"></path><path d="M335.312,51.847h2.211L350.7,68.608V51.847H353V72.761h-1.882l-13.5-17.149V72.761h-2.3Z" style="fill:#fff"></path><path d="M369.754,55.253h-6.633V51.847h16.97v3.406h-6.633V72.761h-3.7Z" style="fill:#fff"></path><path d="M394.666,51.7h3.405l9.2,21.063H403.39l-2.121-5.049h-9.89l-2.15,5.049h-3.765Zm5.258,12.758-3.615-8.366-3.585,8.366Z" style="fill:#fff"></path><path d="M419.7,64.515l-8.305-12.668h4.361l5.826,9.233,5.916-9.233h4.212L423.4,64.425v8.336h-3.7Z" style="fill:#fff"></path><path d="M440.9,51.847h3.675V69.415h11v3.346H440.9Z" style="fill:#fff"></path><path d="M463.245,62.364V62.3a10.936,10.936,0,0,1,21.87-.059V62.3a10.936,10.936,0,0,1-21.87.06Zm18.016,0V62.3a7.166,7.166,0,0,0-7.111-7.439,7.065,7.065,0,0,0-7.05,7.38V62.3a7.139,7.139,0,0,0,7.11,7.409A7.041,7.041,0,0,0,481.261,62.364Z" style="fill:#fff"></path><path d="M495.534,51.847h9.322a8.432,8.432,0,0,1,6.036,2.092,6.323,6.323,0,0,1,1.732,4.512v.059a6.28,6.28,0,0,1-4.96,6.334l5.648,7.917h-4.363l-5.138-7.29h-4.6v7.29h-3.675Zm9.053,10.367c2.63,0,4.3-1.374,4.3-3.495V58.66c0-2.242-1.614-3.466-4.332-3.466h-5.349v7.02Z" style="fill:#fff"></path></g></svg>